<svg width="91" height="91" viewBox="0 0 91 91" fill="none" xmlns="http://www.w3.org/2000/svg">
<rect width="91" height="91" rx="45.5" fill="#D2D2D2"/>
<g clip-path="url(#clip0_21_9)">
<path d="M77.658 34.496L68.916 17.78C68.406 16.806 67.086 16.008 65.988 16.008H45.868C45.846 16.006 45.824 16.002 45.802 16C45.784 16 45.766 16.006 45.748 16.008H25.988C24.888 16.008 23.566 16.804 23.048 17.774L14.33 34.168C13.812 35.14 13.916 36.664 14.556 37.56L44.558 79.382C44.88 79.83 45.308 80.058 45.734 80.058C46.158 80.058 46.582 79.838 46.908 79.396L77.402 37.88C78.052 36.992 78.168 35.472 77.658 34.498V34.496ZM72.886 34.006H62.17L66.462 21.718L72.886 34.006ZM49.946 20.01H62.818L58.824 31.442L49.946 20.01ZM55.752 34.006H37.15L45.942 21.374L55.752 34.006ZM33.606 32.098L29.594 20.01H42.02L33.606 32.098ZM56.534 38.006L45.782 68.79L35.566 38.006H56.534ZM41.296 67.972L19.8 38.006H31.352L41.296 67.972ZM60.772 38.006H72.346L50.286 68.042L60.772 38.006ZM25.768 21.18L30.024 34.006H18.946L25.768 21.18Z" fill="#E28904"/>
</g>
<defs>
<clipPath id="clip0_21_9">
<rect width="64" height="64" fill="white" transform="translate(14 16)"/>
</clipPath>
</defs>
</svg>
